<?xml version="1.0" standalone="no"?>
<!DOCTYPE svg PUBLIC "-//W3C//DTD SVG 20010904//EN"
 "http://www.w3.org/TR/2001/REC-SVG-20010904/DTD/svg10.dtd">
<svg version="1.0" xmlns="http://www.w3.org/2000/svg"
 width="873.000000pt" height="197.000000pt" viewBox="0 0 873.000000 197.000000"
 preserveAspectRatio="xMidYMid meet">

<g transform="translate(0.000000,197.000000) scale(0.100000,-0.100000)"
fill="#000000" stroke="none">
<path d="M0 985 l0 -985 4365 0 4365 0 0 985 0 985 -4365 0 -4365 0 0 -985z
m7266 533 c35 -12 47 -28 36 -45 -15 -22 -217 -174 -239 -179 -30 -8 -79 12
-98 40 -21 30 -19 89 5 119 36 46 115 77 194 77 38 0 84 -5 102 -12z m-6218
-91 l3 -58 39 35 c65 59 116 80 193 81 63 0 71 -2 93 -28 35 -41 33 -99 -5
-138 -27 -27 -35 -29 -103 -29 -114 -1 -193 -49 -213 -132 l-7 -28 85 0 c104
0 131 -16 131 -75 0 -59 -28 -75 -130 -75 l-84 0 0 -115 c0 -62 -5 -138 -11
-167 -38 -184 -187 -315 -372 -326 -89 -5 -176 10 -225 40 -91 55 -86 200 8
248 63 32 109 24 189 -35 41 -31 94 -33 138 -5 56 34 67 68 71 223 l4 137 -36
0 c-101 0 -102 141 -1 152 l30 3 6 90 c7 109 27 153 100 219 72 65 93 61 97
-17z m768 -151 c164 -43 278 -171 307 -341 21 -122 -24 -256 -117 -349 -164
-162 -419 -164 -580 -3 -142 141 -166 348 -62 512 99 153 282 227 452 181z
m604 -5 c5 -11 10 -39 10 -62 l0 -43 38 36 c81 79 184 106 281 73 56 -18 143
-90 168 -138 18 -35 73 -192 73 -208 0 -30 60 -126 103 -164 49 -45 137 -85
185 -85 39 0 128 47 152 79 10 15 27 52 37 81 23 67 58 95 120 95 39 0 49 -5
79 -37 46 -51 47 -109 4 -195 -78 -156 -262 -259 -428 -238 -124 15 -223 66
-310 160 -82 87 -117 164 -147 326 -13 70 -100 139 -175 139 -51 -1 -113 -32
-146 -76 l-29 -37 -5 -222 c-6 -243 -10 -260 -69 -285 -38 -15 -75 -7 -107 25
l-24 24 0 282 c0 187 4 295 12 321 13 44 76 121 123 149 38 24 42 24 55 0z
m1898 4 c65 -20 139 -79 176 -142 l30 -49 38 57 c116 174 315 195 453 48 52
-55 88 -125 104 -197 6 -29 11 -145 11 -260 0 -231 -3 -241 -64 -262 -27 -9
-42 -8 -71 4 -58 25 -65 54 -65 286 0 220 -3 236 -59 283 -92 77 -229 50 -280
-55 -19 -41 -21 -61 -21 -244 0 -181 -2 -202 -20 -232 -37 -61 -108 -66 -155
-10 -25 29 -25 31 -25 223 0 106 -3 208 -7 226 -4 21 -24 51 -53 80 -38 38
-57 49 -93 54 -83 13 -163 -32 -198 -110 -16 -34 -19 -68 -19 -242 0 -201 0
-202 -25 -231 -47 -56 -118 -51 -155 10 -18 31 -20 51 -20 280 0 268 7 326 48
387 35 51 98 101 128 101 23 0 24 -4 24 -61 l0 -61 56 51 c82 76 162 95 262
66z m1405 -18 c30 -14 73 -41 96 -62 l41 -37 0 55 c0 72 16 87 62 59 46 -28
82 -69 110 -122 22 -44 23 -54 26 -324 2 -185 -1 -289 -8 -306 -37 -90 -171
-67 -186 32 l-7 38 -38 -35 c-21 -19 -62 -47 -91 -62 -45 -23 -66 -27 -133
-27 -69 -1 -88 3 -140 28 -199 98 -281 368 -175 583 90 181 275 257 443 180z
m994 0 c89 -46 158 -138 188 -254 17 -66 22 -444 5 -487 -22 -59 -114 -70
-161 -20 -24 25 -24 30 -29 247 -5 210 -6 224 -28 259 -82 132 -283 104 -327
-45 -11 -37 -15 -100 -15 -239 0 -111 -4 -197 -10 -209 -29 -53 -121 -61 -160
-12 -19 25 -20 39 -20 312 0 279 1 287 24 336 27 59 108 135 142 135 22 0 24
-4 24 -55 0 -30 4 -55 8 -55 5 0 19 12 33 26 85 90 218 115 326 61z m492 19
c9 -10 11 -115 9 -385 l-3 -371 -26 -25 c-14 -14 -42 -28 -62 -32 -32 -5 -41
-1 -72 30 l-36 36 3 288 3 288 27 50 c26 49 74 102 113 123 26 15 30 15 44 -2z
m536 3 c64 -17 105 -39 152 -81 l43 -41 0 50 c0 27 6 57 13 67 12 17 16 17 43
3 45 -24 101 -87 125 -142 20 -44 23 -73 28 -237 6 -180 7 -187 30 -212 39
-41 77 -35 127 19 52 57 95 61 146 16 30 -27 33 -34 32 -88 0 -128 -91 -217
-220 -217 -93 1 -181 57 -252 163 l-38 58 -52 -58 c-74 -82 -142 -113 -247
-113 -94 1 -150 22 -216 81 -100 90 -143 201 -137 352 3 82 8 106 35 162 78
167 239 258 388 218z m-4425 -144 c48 -25 70 -62 70 -117 0 -87 -51 -140 -136
-140 -76 0 -134 59 -134 136 0 100 111 167 200 121z"/>
<path d="M1625 1074 c-166 -86 -166 -315 0 -393 131 -62 277 20 301 168 14 86
-40 186 -120 222 -51 23 -140 24 -181 3z"/>
<path d="M5545 1067 c-152 -86 -150 -302 5 -384 51 -27 123 -30 178 -7 147 61
178 257 57 362 -48 43 -74 52 -143 52 -40 0 -69 -7 -97 -23z"/>
<path d="M7631 1068 c-84 -41 -134 -147 -111 -235 17 -71 46 -110 104 -143 97
-56 219 -29 283 63 23 34 29 53 31 116 4 72 2 78 -30 125 -62 92 -178 123
-277 74z"/>
</g>
</svg>
